<svg width="12" height="12" viewBox="0 0 12 12" fill="none" xmlns="http://www.w3.org/2000/svg">
<path d="M8.51117 5.81291L11.1342 3.29591C11.4493 2.98685 11.6246 2.571 11.6222 2.13863C11.6197 1.70626 11.4396 1.29226 11.121 0.986528C10.8024 0.680791 10.371 0.507987 9.9204 0.505624C9.46982 0.503262 9.03646 0.671532 8.71438 0.973909L6.0914 3.49091L3.46842 0.973909C3.31017 0.818699 3.12142 0.695152 2.91308 0.610414C2.70473 0.525677 2.48095 0.481436 2.25467 0.480249C2.02839 0.479063 1.80411 0.520954 1.59481 0.603502C1.38552 0.68605 1.19536 0.807611 1.03536 0.961153C0.875351 1.11469 0.748671 1.29716 0.662648 1.498C0.576624 1.69884 0.532969 1.91406 0.534205 2.1312C0.535442 2.34833 0.581546 2.56308 0.669851 2.763C0.758157 2.96293 0.88691 3.14405 1.04866 3.29591L3.67163 5.81291L1.04866 8.3299C0.733546 8.63896 0.558187 9.05482 0.560649 9.48719C0.563111 9.91956 0.743195 10.3336 1.06181 10.6393C1.38042 10.945 1.81184 11.1178 2.26241 11.1202C2.71299 11.1226 3.14635 10.9543 3.46842 10.6519L6.0914 8.13491L8.71438 10.6519C9.03646 10.9543 9.46982 11.1226 9.9204 11.1202C10.371 11.1178 10.8024 10.945 11.121 10.6393C11.4396 10.3336 11.6197 9.91956 11.6222 9.48719C11.6246 9.05482 11.4493 8.63896 11.1342 8.3299L8.51117 5.81291Z" fill="#A4E0A4"/>
</svg>
