<svg width="26" height="25" viewBox="0 0 26 25" fill="none" xmlns="http://www.w3.org/2000/svg">
<path d="M18.7302 1.25H18.6698C17.531 1.25549 16.4115 1.54064 15.4126 2.07966C14.4137 2.61869 13.5668 3.3946 12.9484 4.33727C12.3298 3.39419 11.4824 2.61802 10.4829 2.07898C9.4834 1.53993 8.36335 1.25501 7.22407 1.25H7.16364C5.36954 1.26646 3.65454 1.98029 2.39139 3.23633C1.12825 4.49236 0.419056 6.1891 0.417969 7.95772C0.567581 10.8064 1.56909 13.5478 3.29634 15.8364C6.08526 19.2995 9.33023 22.3805 12.9454 24.998C16.5607 22.3805 19.8056 19.2995 22.5945 15.8364C24.3218 13.5478 25.3233 10.8064 25.4729 7.95772C25.4718 6.18959 24.7631 4.4933 23.5005 3.23734C22.238 1.98138 20.5238 1.26722 18.7302 1.25ZM21.2357 14.8514C18.8285 17.8684 16.044 20.5732 12.9484 22.9016C9.85226 20.5728 7.06682 17.8681 4.65815 14.8514C3.14284 12.8483 2.25501 10.452 2.10402 7.95772C2.1032 6.62785 2.63594 5.35163 3.58601 4.40746C4.53609 3.4633 5.82639 2.92782 7.17544 2.91785H7.23439C8.10186 2.91821 8.9546 3.13887 9.71041 3.55855C10.4501 3.96897 11.0781 4.54966 11.5409 5.2511C11.6948 5.48281 11.9047 5.6731 12.1519 5.8048C12.399 5.9365 12.6756 6.00546 12.9565 6.00546C13.2374 6.00546 13.514 5.9365 13.7611 5.8048C14.0082 5.6731 14.2182 5.48281 14.3721 5.2511C14.8364 4.55095 15.4641 3.97059 16.2026 3.55855C16.9584 3.13887 17.8111 2.91821 18.6786 2.91785H18.7302C20.0792 2.92782 21.3695 3.4633 22.3196 4.40746C23.2697 5.35163 23.8024 6.62785 23.8016 7.95772C23.6378 10.4513 22.7467 12.8451 21.2357 14.8514Z" fill="#EC5353"/>
</svg>
