<svg width="57" height="80" viewBox="0 0 57 80" fill="none" xmlns="http://www.w3.org/2000/svg">
<path d="M45.2643 8.52881C46.4879 8.53101 47.6609 8.98292 48.527 9.78585C49.3931 10.5888 49.8818 11.6775 49.8866 12.8141V21.5016C49.8818 22.6382 49.3931 23.7269 48.527 24.5298C47.6609 25.3327 46.4879 25.7846 45.2643 25.7868H35.9209" stroke="black" stroke-width="2.4923" stroke-linecap="round" stroke-linejoin="round"/>
<path d="M15.7155 77.9954C18.9441 77.9954 21.5614 75.5644 21.5614 72.5657C21.5614 69.5669 18.9441 67.136 15.7155 67.136C12.4869 67.136 9.86963 69.5669 9.86963 72.5657C9.86963 75.5644 12.4869 77.9954 15.7155 77.9954Z" stroke="black" stroke-width="2.4923" stroke-linecap="round" stroke-linejoin="round"/>
<path d="M8.87959 7.44529e-06C8.87959 7.44529e-06 8.59182 22.9383 30.3273 20.14C33.3488 -0.0918779 8.87959 7.44529e-06 8.87959 7.44529e-06Z" fill="#A3CB38"/>
<path d="M9.06885 3.24951C9.75229 8.98827 13.1965 22.2701 30.3546 20.0648L9.06885 3.24951Z" fill="#C4E538"/>
<path d="M30.3279 19.9399L12.2075 0.16748C18.3585 0.793983 32.7109 3.97662 30.3279 19.9399Z" fill="#A2E54C"/>
<path d="M2 51.6824H41.568" stroke="#A2E54C" stroke-width="2.4923" stroke-linecap="round" stroke-linejoin="round"/>
<path d="M55.7309 53.3529C55.7309 56.0115 54.5939 58.5611 52.5702 60.441C50.5464 62.3209 47.8016 63.377 44.9396 63.377H13.0154C10.1534 63.377 7.40856 62.3209 5.3848 60.441C3.36105 58.5611 2.22412 56.0115 2.22412 53.3529V35.8109C2.22412 33.1524 3.36105 30.6027 5.3848 28.7228C7.40856 26.843 10.1534 25.7869 13.0154 25.7869H44.9396" stroke="black" stroke-width="2.4923" stroke-linecap="round" stroke-linejoin="round"/>
<path d="M51.9105 69.3749C52.591 70.2431 52.979 71.2793 53.0254 72.3523C53.0719 73.4254 52.7747 74.4871 52.1714 75.4033C51.5682 76.3195 50.686 77.0489 49.6364 77.4994C48.5868 77.9498 47.4169 78.1011 46.2748 77.934C45.1326 77.767 44.0695 77.2891 43.2198 76.5608C42.37 75.8325 41.7719 74.8865 41.5011 73.8425C41.2302 72.7985 41.2987 71.7033 41.698 70.6954C42.0973 69.6876 42.8094 68.8123 43.7442 68.1804C44.3645 67.7598 45.068 67.4569 45.8145 67.2893C46.5609 67.1217 47.3357 67.0925 48.0943 67.2035C48.8529 67.3144 49.5805 67.5633 50.2353 67.936C50.8902 68.3086 51.4595 68.7976 51.9105 69.3749Z" stroke="black" stroke-width="2.4923" stroke-linecap="round" stroke-linejoin="round"/>
<path d="M23.3398 13.4575L33.5297 22.9219" stroke="#A3CB38" stroke-width="2.4923" stroke-linecap="round" stroke-linejoin="round"/>
</svg>
