<svg width="10" height="10" viewBox="0 0 10 10" fill="none" xmlns="http://www.w3.org/2000/svg">
<path d="M9.28904 3.92647H6.07388V0.710949C6.07388 0.522393 5.99898 0.341561 5.86567 0.208232C5.73235 0.0749032 5.55154 0 5.36301 0H4.65214C4.4636 0 4.28279 0.0749032 4.14948 0.208232C4.01616 0.341561 3.94127 0.522393 3.94127 0.710949V3.92647H0.71087C0.522336 3.92647 0.341523 4.00137 0.208209 4.1347C0.074895 4.26803 0 4.44886 0 4.63742L0 5.34836C0 5.53692 0.074895 5.71775 0.208209 5.85108C0.341523 5.98441 0.522336 6.05931 0.71087 6.05931H3.9301V9.28905C3.9301 9.47761 4.00499 9.65844 4.13831 9.79177C4.27162 9.9251 4.45243 10 4.64097 10H5.35184C5.54037 10 5.72118 9.9251 5.8545 9.79177C5.98781 9.65844 6.06271 9.47761 6.06271 9.28905V6.07049H9.28904C9.47758 6.07049 9.65839 5.99558 9.7917 5.86225C9.92502 5.72892 9.99991 5.54809 9.99991 5.35954V4.64859C10.0014 4.55429 9.9841 4.46064 9.94904 4.37309C9.91398 4.28554 9.86185 4.20584 9.79569 4.13863C9.72954 4.07143 9.65067 4.01806 9.56368 3.98163C9.4767 3.94521 9.38334 3.92646 9.28904 3.92647Z" fill="white"/>
</svg>
