<svg width="23" height="23" viewBox="0 0 23 23" fill="none" xmlns="http://www.w3.org/2000/svg">
<path d="M20.1209 10.6989C20.1209 12.5626 19.5682 14.3845 18.5328 15.9341C17.4973 17.4837 16.0256 18.6915 14.3037 19.4047C12.5818 20.1179 10.6871 20.3044 8.8592 19.9407C7.03129 19.5771 5.35228 18.6795 4.03449 17.3616C2.7167 16.0437 1.81932 14.3646 1.45584 12.5366C1.09237 10.7087 1.27912 8.81397 1.99248 7.09216C2.70583 5.37035 3.91376 3.89875 5.4635 2.86345C7.01323 1.82816 8.83517 1.27568 10.6989 1.27588C13.1979 1.27614 15.5944 2.26904 17.3613 4.03617C19.1283 5.80329 20.1209 8.19992 20.1209 10.6989Z" stroke="#9B9B9B" stroke-width="1.5" stroke-linecap="round" stroke-linejoin="round"/>
<path d="M22.1529 22.1529L17.7229 17.7229" stroke="#9B9B9B" stroke-width="1.5" stroke-linecap="round" stroke-linejoin="round"/>
</svg>
